<svg width="1496" height="755" viewBox="0 0 1496 755" fill="none" xmlns="http://www.w3.org/2000/svg">
<path d="M770.5 84.0258V358.526" stroke="#E03E52" stroke-width="4"/>
<path d="M846 84.0258V358.526" stroke="#E03E52" stroke-width="4"/>
<path d="M768.5 357.026H848" stroke="#E03E52" stroke-width="4"/>
<path d="M1135.5 137.026H1186.5" stroke="#E03E52" stroke-width="4"/>
<path d="M713 86.0258H769.5" stroke="#E03E52" stroke-width="4"/>
<path d="M1143.5 209.026H1217.5" stroke="#E03E52" stroke-width="4"/>
<path d="M1317.5 286.026C1325.79 204.147 1218.5 102.526 1268 76.5258" stroke="#E03E52" stroke-width="4"/>
<path d="M1301.5 138.026L1372 134.026" stroke="#E03E52" stroke-width="4"/>
<path d="M1268 76.5258C1282.5 70.0259 1299.55 92.8772 1302 139.026" stroke="#E03E52" stroke-width="4"/>
<path d="M1154 294.526C1201.5 387.026 1311 373.026 1318 282.026" stroke="#E03E52" stroke-width="4"/>
<path d="M1209.5 253.026C1229.58 279.679 1238.74 289.827 1243 280.526" stroke="#E03E52" stroke-width="3"/>
<path d="M1154 296.526L1210.5 253.526" stroke="#E03E52" stroke-width="3"/>
<path d="M1022 20.0258C863.513 23.5258 879.362 351.526 1022 364.026" stroke="#E03E52" stroke-width="4"/>
<path d="M1021.49 364.026C1190.14 364.026 1171.68 34.0053 1037.04 20.0258H1019" stroke="#E03E52" stroke-width="4"/>
<path d="M991.52 140.026C999.076 82.4701 1041.89 75.0276 1059.52 140.026" stroke="#E03E52" stroke-width="4"/>
<path d="M989.56 141.026C989.56 141.026 1033.32 141.026 1061.4 141.026" stroke="#E03E52" stroke-width="4"/>
<path d="M1064.5 216.525C1057.5 307.525 1004 323.526 989.001 216.525" stroke="#E03E52" stroke-width="4"/>
<path d="M986 216.298C986 216.298 1035.34 216.132 1067 216.026" stroke="#E03E52" stroke-width="4"/>
<path d="M466 130.526L506 130.026" stroke="#E03E52" stroke-width="4"/>
<path d="M472 203.026L506 203.026" stroke="#E03E52" stroke-width="4"/>
<path d="M503.5 4.52579L507.5 360.526" stroke="#E03E52" stroke-width="4"/>
<path d="M662.5 312.526L577.5 265.526" stroke="#E03E52" stroke-width="4"/>
<path d="M503 2.5257C662.5 -7.47427 750 127.526 631.5 208.526" stroke="#E03E52" stroke-width="4"/>
<path d="M699 247.026L661 314.026" stroke="#E03E52" stroke-width="4"/>
<path d="M505.5 359.026L581 357.026" stroke="#E03E52" stroke-width="4"/>
<path d="M578.5 264.526V358.526" stroke="#E03E52" stroke-width="4"/>
<path d="M632 208.526L698 249.026" stroke="#E03E52" stroke-width="4"/>
<path d="M349 13.0258C190.513 16.5258 206.362 344.526 349 357.026" stroke="#E03E52" stroke-width="4"/>
<path d="M348.494 357.026C517.137 357.026 498.677 27.0053 364.045 13.0258H346" stroke="#E03E52" stroke-width="4"/>
<path d="M318.52 133.026C326.076 75.4701 368.89 68.0276 386.52 133.026" stroke="#E03E52" stroke-width="4"/>
<path d="M316.56 134.026C316.56 134.026 360.321 134.026 388.4 134.026" stroke="#E03E52" stroke-width="4"/>
<path d="M391.496 209.525C384.502 300.525 331 316.526 316.001 209.525" stroke="#E03E52" stroke-width="4"/>
<path d="M313 209.298C313 209.298 362.341 209.132 394 209.026" stroke="#E03E52" stroke-width="4"/>
<path d="M282.061 333.578L282.321 356.307C282.331 357.191 282.336 357.633 282.071 357.925C281.806 358.216 281.365 358.252 280.484 358.323L229.346 362.49C219.911 363.259 215.193 363.643 212.032 360.946C208.871 358.249 208.507 353.53 207.781 344.091L201.97 268.608L200.764 245.317L198.557 222.038L197.429 184.763C197.319 181.118 197.264 179.296 196.469 179.15C195.674 179.005 194.976 180.69 193.582 184.059L177.214 223.61C176.959 224.224 176.832 224.531 176.572 224.7C176.313 224.869 175.98 224.861 175.316 224.845L108.839 223.209C108.23 223.194 107.925 223.186 107.685 223.027C107.446 222.869 107.32 222.591 107.068 222.036L85.9584 175.544C84.5606 172.465 83.8616 170.926 83.0837 171.081C82.3058 171.236 82.25 172.926 82.1384 176.305L76.1686 357.139C76.1383 358.057 76.1232 358.516 75.8309 358.797C75.5386 359.079 75.0794 359.077 74.161 359.073L39.0581 358.92L4.01623 357.819C3.06654 357.789 2.59169 357.774 2.30773 357.469C2.02377 357.164 2.04273 356.689 2.08065 355.74L15.1731 27.9406C15.3367 23.8454 15.4185 21.7978 16.333 20.2675C16.961 19.2167 17.8536 18.349 18.9217 17.7509C20.4772 16.8799 22.5263 16.8559 26.6245 16.8079V16.8079L46.646 16.5734L67.6685 16.3272L86.8231 16.903C89.2 16.9744 90.3885 17.0101 91.3303 17.6248C92.2721 18.2394 92.7833 19.3129 93.8057 21.4599L138.575 115.475C139.379 117.163 139.781 118.008 140.42 118C141.06 117.993 141.442 117.139 142.206 115.432L185.322 19.0896C185.569 18.5379 185.692 18.262 185.929 18.1023C186.165 17.9426 186.467 17.931 187.071 17.908L259.812 15.136C260.787 15.0988 261.275 15.0802 261.581 15.3752C261.888 15.6703 261.888 16.1584 261.888 17.1345L261.888 55" stroke="#E03E52" stroke-width="4"/>
<path d="M281.286 333.578C281.471 333.758 281.656 333.937 281.842 334.116C279.72 332.073 280.363 332.691 281.286 333.578Z" fill="#E03E52"/>
<path d="M262.239 54C209.427 127.854 219.055 273.662 281.842 334.116C278.302 330.707 282.459 334.707 282.77 335" stroke="#E03E52" stroke-width="4"/>
<path d="M1216 208.026C1226.86 230.65 1254.5 266.526 1241 283.026" stroke="#E03E52" stroke-width="3"/>
<path d="M572.5 82.5258C637 102.526 610 145.026 574.5 154.026" stroke="#E03E52" stroke-width="4"/>
<path d="M1372 134.526C1374 57.5258 1336.5 -1.47426 1269.5 3.52575C1197.78 14.7211 1181.37 45.9141 1185.5 136.526" stroke="#E03E52" stroke-width="3"/>
<path d="M572 80.5258L573.45 155.946" stroke="#E03E52" stroke-width="4"/>
<path d="M903.5 86.0258H847" stroke="#E03E52" stroke-width="4"/>
<path d="M715 21.5258H901.5" stroke="#E03E52" stroke-width="4"/>
<path d="M901.5 19.5258V87.0258" stroke="#E03E52" stroke-width="4"/>
<path d="M715 21.5258V86.0258" stroke="#E03E52" stroke-width="4"/>
<path d="M641.8 639.5C640.6 639.5 638.8 639 636.4 638C634.2 637.2 632.6 636.8 631.6 636.8C631.8 636.8 631.4 637.1 630.4 637.7L629.2 637.1C618.8 631.9 611.1 625.3 606.1 617.3C601.1 609.3 598.6 600.4 598.6 590.6C598.6 581.4 601.7 573.9 607.9 568.1C614.3 562.3 622.1 559.4 631.3 559.4C643.5 559.4 658.9 564.3 677.5 574.1L683.8 577.4C687 568.4 690 558.4 692.8 547.4C691.6 548.6 690.2 549.8 688.6 551C687.2 552.2 685.7 553.6 684.1 555.2C679.9 552.8 677.8 549.3 677.8 544.7C677.8 542.9 678.6 540.8 680.2 538.4C681.8 535.8 683.5 534.4 685.3 534.2C687.1 540.6 689.8 544 693.4 544.4C704.2 500.6 709.6 466.7 709.6 442.7C709.6 435.9 709.3 429.7 708.7 424.1C695.9 424.9 684.1 426.3 673.3 428.3C662.5 430.1 652.8 432.4 644.2 435.2C620.2 443 608.2 453.5 608.2 466.7C608.2 478.9 619.3 489.5 641.5 498.5C641.5 498.5 641.7 498.7 642.1 499.1C642.1 499.7 641 500 638.8 500C632.4 500 623.9 495.8 613.3 487.4C602.7 478.6 597.4 470.1 597.4 461.9C597.4 444.9 612.9 432 643.9 423.2C653.3 420.4 663.2 418.2 673.6 416.6C684.2 415 695.3 413.8 706.9 413C702.7 392.4 693.9 382.1 680.5 382.1H676.3C681.9 384.5 684.7 388.8 684.7 395C684.7 400.8 682.8 404.6 679 406.4C677.2 395 671.3 389.4 661.3 389.6C664.5 382.4 670.8 378.8 680.2 378.8C696.6 378.8 707.4 390.1 712.6 412.7C715.2 412.5 717.8 412.4 720.4 412.4C723 412.4 725.6 412.4 728.2 412.4C739.8 412.4 751 413 761.8 414.2C777.4 395.6 793.2 386.3 809.2 386.3C814 386.3 818.9 388.1 823.9 391.7C828.9 394.7 831.4 398.6 831.4 403.4C831.4 407 830.5 408.8 828.7 408.8C828.1 408.8 825.5 405.9 820.9 400.1C816.7 394.1 811.2 391.1 804.4 391.1C798 391.1 791.9 393.2 786.1 397.4C780.3 401.6 775 407.6 770.2 415.4C840.2 425.6 875.2 457.3 875.2 510.5C875.2 537.7 864.3 561.2 842.5 581C820.7 601 796.3 611 769.3 611C750.1 611 729.3 606.9 706.9 598.7C698.5 609.3 689.1 617.5 678.7 623.3C668.3 629.1 656.9 632 644.5 632H643.6C636.2 632 632.5 629 632.5 623C632.5 618.2 633.9 615.8 636.7 615.8C637.1 615.8 639.7 617.6 644.5 621.2C649.3 624.8 654 626.6 658.6 626.6C670.4 626.6 682 615.5 693.4 593.3L682.6 588.8L679.3 596.3C678.7 597.7 678.1 598.4 677.5 598.4C676.7 598.4 676.3 597.7 676.3 596.3C676.3 596.1 677.4 593.2 679.6 587.6C670.6 584.2 662.3 581.3 654.7 578.9C647.3 576.5 640.4 574.7 634 573.5C631.8 573.1 629.7 572.8 627.7 572.6C625.9 572.4 624.2 572.3 622.6 572.3C608 572.3 600.7 578.5 600.7 590.9C600.7 606.1 609.4 619.4 626.8 630.8C628.8 632.2 631 633.4 633.4 634.4C635.8 635.6 638.5 636.9 641.5 638.3C642.1 638.3 642.5 638.6 642.7 639.2C642.7 639.4 642.4 639.5 641.8 639.5ZM697.3 584.6C702.5 573.4 707.5 560.1 712.3 544.7C717.1 529.1 721.7 511.6 726.1 492.2C729.3 479 733.2 466.7 737.8 455.3C742.6 443.9 748.1 433.6 754.3 424.4C750.1 424 745.9 423.7 741.7 423.5C737.5 423.3 733.2 423.2 728.8 423.2C726.8 423.2 724.6 423.3 722.2 423.5C719.8 423.5 717.2 423.6 714.4 423.8C714.8 427 715.1 430.5 715.3 434.3C715.7 438.1 715.9 442 715.9 446C715.9 463.6 714.3 479.1 711.1 492.5C707.1 510.3 703 526.4 698.8 540.8C694.8 555.2 690.6 567.8 686.2 578.6L697.3 584.6ZM769.3 607.4C795.1 607.4 816.8 598.4 834.4 580.4C852.4 562.6 861.4 540.8 861.4 515C861.4 464.4 829.2 434.6 764.8 425.6C761 433.6 757.1 443.4 753.1 455C749.1 466.6 745.2 480 741.4 495.2L725.5 560.6C724.1 566.2 722.2 571.6 719.8 576.8C717.6 581.8 714.9 586.6 711.7 591.2C735.5 602 754.7 607.4 769.3 607.4ZM908.554 607.4C900.354 607.4 893.254 605.1 887.254 600.5C881.454 595.7 878.554 588.5 878.554 578.9C878.554 568.3 882.054 557.4 889.054 546.2C892.654 540.4 897.054 535.8 902.254 532.4C907.454 528.8 912.054 527 916.054 527C921.854 527 924.754 530.5 924.754 537.5C924.754 543.5 920.754 550.8 912.754 559.4C905.354 567 898.354 572.2 891.754 575C891.554 575.8 891.354 576.7 891.154 577.7C891.154 578.5 891.154 579.4 891.154 580.4C891.154 593 898.654 599.3 913.654 599.3C922.254 599.3 930.254 596.7 937.654 591.5C945.254 586.1 951.854 580 957.454 573.2C958.454 572 959.354 571.4 960.154 571.4C960.954 571.4 961.354 571.8 961.354 572.6C961.354 573.4 960.954 574.5 960.154 575.9C959.354 577.1 958.754 577.9 958.354 578.3C955.154 582.7 951.754 586.6 948.154 590C944.754 593.4 940.154 596.7 934.354 599.9C930.154 602.5 925.754 604.4 921.154 605.6C916.754 606.8 912.554 607.4 908.554 607.4ZM892.954 568.7C895.554 567.3 898.054 565.7 900.454 563.9C903.054 561.9 905.554 559.6 907.954 557C913.354 550.6 916.054 545 916.054 540.2C916.054 537.2 915.154 535.7 913.354 535.7C911.754 535.7 909.654 537.1 907.054 539.9C904.654 542.5 902.354 545.8 900.154 549.8C896.354 557.6 893.954 563.9 892.954 568.7ZM1070.85 620.9C1057.05 620.9 1044.05 617.4 1031.85 610.4C1018.65 602.2 1009.85 592 1005.45 579.8C1003.85 575.4 1002.65 571.4 1001.85 567.8C1001.05 564 1000.65 560.8 1000.65 558.2C1000.65 551.8 1002.95 548.6 1007.55 548.6C1008.95 548.6 1009.75 549.3 1009.95 550.7C1010.95 554.5 1011.85 557.7 1012.65 560.3C1013.45 562.9 1014.15 565 1014.75 566.6C1015.75 569.4 1017.05 572 1018.65 574.4C1020.25 576.8 1021.95 579.1 1023.75 581.3C1033.15 591.9 1045.75 597.2 1061.55 597.2C1064.35 597.2 1067.65 596.6 1071.45 595.4C1075.65 594.2 1078.05 593.6 1078.65 593.6C1079.25 593.8 1079.55 594.1 1079.55 594.5C1079.55 598.1 1071.95 599.9 1056.75 599.9C1035.15 599.9 1020.95 592.5 1014.15 577.7C1026.15 604.5 1044.95 617.9 1070.55 617.9C1098.15 617.9 1119.85 605.8 1135.65 581.6C1140.65 574 1145.65 563.7 1150.65 550.7C1155.65 537.5 1160.75 521.6 1165.95 503C1163.95 502.8 1161.45 502.6 1158.45 502.4C1155.65 502 1152.55 501.5 1149.15 500.9C1147.55 523.1 1137.65 540 1119.45 551.6C1120.65 549.8 1121.25 547.6 1121.25 545C1121.25 543.4 1120.05 539.6 1117.65 533.6C1117.65 532.2 1118.15 530.1 1119.15 527.3C1120.15 524.5 1121.25 522.9 1122.45 522.5L1123.05 523.1C1126.65 530.9 1128.45 535.7 1128.45 537.5C1128.45 538.3 1128.35 538.7 1128.15 538.7L1123.95 545.9C1137.75 533.5 1144.85 518.3 1145.25 500.3C1130.65 497.9 1119.05 496.7 1110.45 496.7C1095.25 496.7 1082.65 500 1072.65 506.6L1072.05 505.7L1081.65 498.2C1089.85 491.4 1102.45 488 1119.45 488C1122.85 488 1126.65 488.2 1130.85 488.6C1135.05 489 1139.65 489.6 1144.65 490.4C1143.85 484.8 1142.45 479.8 1140.45 475.4C1138.65 470.8 1136.35 466.6 1133.55 462.8C1127.15 453.6 1119.45 449 1110.45 449C1109.25 449 1107.65 449.3 1105.65 449.9C1103.85 450.5 1102.45 450.8 1101.45 450.8C1100.85 450.8 1100.55 450.6 1100.55 450.2C1100.55 447 1104.25 445.4 1111.65 445.4C1122.45 445.4 1131.45 450.4 1138.65 460.4C1144.45 469 1147.95 479.1 1149.15 490.7C1151.35 490.9 1153.95 491.3 1156.95 491.9C1160.15 492.3 1163.85 492.9 1168.05 493.7C1171.45 480.9 1174.65 470 1177.65 461C1180.65 451.8 1183.45 444.4 1186.05 438.8C1179.45 438.4 1172.15 437.5 1164.15 436.1C1156.35 434.7 1147.85 433 1138.65 431L1091.55 420.2C1082.15 418.4 1073.55 417 1065.75 416C1058.15 415 1051.25 414.5 1045.05 414.5C1029.65 414.5 1018.05 417.6 1010.25 423.8C1004.05 428.8 1000.95 434.4 1000.95 440.6C1000.95 451.4 1008.55 456.8 1023.75 456.8C1024.35 456.8 1024.65 456.9 1024.65 457.1C1024.65 457.9 1022.15 458.4 1017.15 458.6C1016.75 458.6 1016.35 458.8 1015.95 459.2C1015.55 459.4 1015.05 459.5 1014.45 459.5C1013.45 459.5 1012.05 459.2 1010.25 458.6C1002.45 456 998.552 450.6 998.552 442.4C998.552 440.2 998.852 437.9 999.452 435.5C1000.25 433.1 1001.45 430.8 1003.05 428.6C1014.45 411.6 1032.55 403.1 1057.35 403.1C1062.35 403.1 1067.65 403.5 1073.25 404.3C1079.05 404.9 1085.25 405.8 1091.85 407C1102.85 409.8 1116.55 413 1132.95 416.6C1149.55 420.2 1168.95 424.3 1191.15 428.9L1195.05 422.3C1198.45 417.5 1203.15 413.1 1209.15 409.1C1215.75 405.3 1221.75 403.4 1227.15 403.4C1229.95 403.4 1233.15 404.3 1236.75 406.1C1240.55 407.9 1242.45 410.2 1242.45 413C1242.45 415.2 1241.55 416.3 1239.75 416.3C1239.35 416.3 1237.65 414.8 1234.65 411.8C1232.05 408.6 1229.05 407 1225.65 407C1218.45 407 1212.25 412.8 1207.05 424.4L1204.35 430.1C1206.95 430.3 1209.45 430.4 1211.85 430.4C1214.45 430.4 1216.75 430.4 1218.75 430.4C1232.75 430.4 1241.95 428.1 1246.35 423.5C1249.95 419.3 1251.75 414.6 1251.75 409.4C1251.75 406.6 1250.95 404.1 1249.35 401.9C1247.75 399.5 1246.95 398.3 1246.95 398.3C1246.95 397.3 1247.55 396.8 1248.75 396.8C1252.35 396.8 1254.15 401 1254.15 409.4C1254.15 429.8 1237.25 439.9 1203.45 439.7H1201.05C1200.25 441.5 1198.35 447.1 1195.35 456.5C1192.55 465.7 1188.55 478.6 1183.35 495.2H1189.65C1194.85 495.2 1199.55 494.7 1203.75 493.7C1208.15 492.7 1212.15 491.3 1215.75 489.5C1216.55 489.5 1216.95 489.7 1216.95 490.1C1216.95 493.3 1212.95 496.8 1204.95 500.6C1201.95 501.8 1198.75 502.8 1195.35 503.6C1192.15 504.2 1188.75 504.5 1185.15 504.5C1184.35 504.5 1183.55 504.5 1182.75 504.5C1181.95 504.5 1181.15 504.4 1180.35 504.2C1174.75 522.4 1168.75 538.2 1162.35 551.6C1156.15 564.8 1149.75 575.8 1143.15 584.6C1123.95 608.8 1099.85 620.9 1070.85 620.9ZM1208.33 610.4C1200.93 610.4 1197.23 605 1197.23 594.2C1197.23 591.4 1197.53 588.3 1198.13 584.9C1198.73 581.5 1199.53 577.9 1200.53 574.1C1202.53 567.1 1205.53 559.2 1209.53 550.4C1215.53 538 1220.53 531.8 1224.53 531.8C1228.33 531.8 1231.43 533.9 1233.83 538.1C1235.43 537.5 1236.73 537.2 1237.73 537.2C1243.33 537.2 1246.13 541.4 1246.13 549.8C1246.13 553.4 1245.43 557.6 1244.03 562.4C1242.63 567.2 1240.23 573.2 1236.83 580.4C1241.83 585 1246.73 587.3 1251.53 587.3C1255.33 587.3 1258.93 586.4 1262.33 584.6C1265.73 582.6 1269.53 578.8 1273.73 573.2C1274.13 572.8 1274.73 572.6 1275.53 572.6C1276.13 572.6 1276.43 573.2 1276.43 574.4C1276.43 575.6 1275.93 576.9 1274.93 578.3C1272.33 581.7 1269.03 584.8 1265.03 587.6C1261.23 590.2 1256.43 591.5 1250.63 591.5C1244.83 591.5 1239.63 589.5 1235.03 585.5C1227.43 602.1 1218.53 610.4 1208.33 610.4ZM1233.23 576.5C1234.83 572.9 1236.03 569.2 1236.83 565.4C1237.63 561.6 1238.03 557.5 1238.03 553.1C1238.03 546.3 1236.03 542.9 1232.03 542.9C1228.23 542.9 1226.33 546.6 1226.33 554C1226.33 557.2 1227.03 561.1 1228.43 565.7C1230.03 570.3 1231.63 573.9 1233.23 576.5ZM1213.73 602C1216.53 602 1220.03 599.3 1224.23 593.9C1226.03 591.7 1227.53 589.5 1228.73 587.3C1229.93 584.9 1230.73 583.3 1231.13 582.5C1228.13 579.1 1225.53 575.5 1223.33 571.7C1221.13 567.9 1219.83 564 1219.43 560C1217.03 562 1214.53 567.2 1211.93 575.6C1209.33 584 1208.03 590.1 1208.03 593.9C1208.03 599.3 1209.93 602 1213.73 602ZM1318.77 609.5C1316.97 609.5 1315.57 608 1314.57 605V599.3C1314.57 574.5 1311.37 562.1 1304.97 562.1C1300.77 562.1 1294.37 568.9 1285.77 582.5C1283.37 586.1 1280.97 589.7 1278.57 593.3C1276.37 596.9 1274.17 600.5 1271.97 604.1C1270.77 604.5 1269.87 604.7 1269.27 604.7C1267.27 604.7 1266.27 603.2 1266.27 600.2V599.3L1269.87 587.3C1274.07 574.7 1277.17 564.7 1279.17 557.3C1281.17 549.7 1282.17 544.7 1282.17 542.3C1282.17 541.5 1282.07 541 1281.87 540.8C1285.87 537.2 1289.67 535.4 1293.27 535.4C1295.07 535.4 1295.77 535.9 1295.37 536.9L1289.97 567.2C1291.97 564.4 1296.07 560.9 1302.27 556.7C1305.47 554.5 1308.17 552.9 1310.37 551.9C1312.77 550.9 1314.67 550.4 1316.07 550.4C1322.27 550.4 1325.77 562.9 1326.57 587.9C1328.77 583.9 1331.67 578.9 1335.27 572.9C1339.07 566.9 1343.47 560 1348.47 552.2C1351.27 548.4 1354.27 546.5 1357.47 546.5C1360.47 546.5 1362.27 548.4 1362.87 552.2C1363.47 560 1364.07 567.3 1364.67 574.1C1365.27 580.7 1366.57 586 1368.57 590C1370.57 594 1373.97 596.1 1378.77 596.3C1384.77 596.3 1390.67 594.1 1396.47 589.7C1402.47 585.1 1407.87 579.6 1412.67 573.2C1413.67 571.6 1414.67 570.8 1415.67 570.8C1416.27 570.8 1416.57 571.6 1416.57 573.2C1416.57 573.6 1416.17 574.5 1415.37 575.9C1414.57 577.1 1413.97 577.9 1413.57 578.3C1410.17 583.3 1406.17 588.2 1401.57 593C1397.17 597.6 1392.47 601.4 1387.47 604.4C1382.47 607.2 1377.47 608.6 1372.47 608.6C1365.07 608.6 1359.67 604.6 1356.27 596.6C1352.87 588.6 1350.77 577.3 1349.97 562.7C1345.77 566.5 1341.27 573.3 1336.47 583.1C1333.47 588.7 1330.97 593.4 1328.97 597.2C1326.97 600.8 1325.47 603.4 1324.47 605C1322.47 608 1320.57 609.5 1318.77 609.5ZM1442.34 607.4C1434.14 607.4 1427.04 605.1 1421.04 600.5C1415.24 595.7 1412.34 588.5 1412.34 578.9C1412.34 568.3 1415.84 557.4 1422.84 546.2C1426.44 540.4 1430.84 535.8 1436.04 532.4C1441.24 528.8 1445.84 527 1449.84 527C1455.64 527 1458.54 530.5 1458.54 537.5C1458.54 543.5 1454.54 550.8 1446.54 559.4C1439.14 567 1432.14 572.2 1425.54 575C1425.34 575.8 1425.14 576.7 1424.94 577.7C1424.94 578.5 1424.94 579.4 1424.94 580.4C1424.94 593 1432.44 599.3 1447.44 599.3C1456.04 599.3 1464.04 596.7 1471.44 591.5C1479.04 586.1 1485.64 580 1491.24 573.2C1492.24 572 1493.14 571.4 1493.94 571.4C1494.74 571.4 1495.14 571.8 1495.14 572.6C1495.14 573.4 1494.74 574.5 1493.94 575.9C1493.14 577.1 1492.54 577.9 1492.14 578.3C1488.94 582.7 1485.54 586.6 1481.94 590C1478.54 593.4 1473.94 596.7 1468.14 599.9C1463.94 602.5 1459.54 604.4 1454.94 605.6C1450.54 606.8 1446.34 607.4 1442.34 607.4ZM1426.74 568.7C1429.34 567.3 1431.84 565.7 1434.24 563.9C1436.84 561.9 1439.34 559.6 1441.74 557C1447.14 550.6 1449.84 545 1449.84 540.2C1449.84 537.2 1448.94 535.7 1447.14 535.7C1445.54 535.7 1443.44 537.1 1440.84 539.9C1438.44 542.5 1436.14 545.8 1433.94 549.8C1430.14 557.6 1427.74 563.9 1426.74 568.7Z" fill="#EAAA00"/>
</svg>
